#!OML:ASF E:\Mandelcareful walks\Project 1\Capture day 1\Session 1\Subject1.ASF
:FULLY-SPECIFIED
:DEGREES
539
root -9.11996 13.6556 -0.349379 -331.858 75.3295 12.3729
lowerback 29.3956 1.47423 -9.15223
upperback 8.67728 -0.354754 -5.68757
thorax -6.27411 0.224771 -1.02458
lowerneck -11.3787 20.323 15.5118
upperneck 10.3502 28.2134 -19.2507
head 10.1715 12.7128 -4.30045
rclavicle 1.43125e-014 3.26007e-014
rhumerus 44.6704 -33.2637 -29.1077
rradius 134.018
rwrist -57.7345
rhand -13.5402 -15.6765
rfingers 7.12502
rthumb 12.5724 -45.2782
lclavicle 1.43125e-014 3.26007e-014
lhumerus -22.1468 -49.0953 66.2098
lradius 87.0208
lwrist -0.0790738
lhand -18.395 -21.0205
lfingers 7.12502
lthumb 7.88909 8.81227
rfemur -58.918 -21.0149 -0.357206
rtibia 67.5128
rfoot -16.8774 3.71677
rtoes -18.3458
lfemur -64.233 20.0101 -20.9757
ltibia 81.3318
lfoot -27.5424 7.26112
ltoes -10.3176
540
root -9.12514 13.6344 -0.285089 -329.871 75.5903 13.9968
lowerback 29.4098 1.53283 -8.79357
upperback 8.1761 -0.285185 -5.84344
thorax -6.86934 0.267851 -1.43965
lowerneck -9.75562 21.4347 16.5245
upperneck 10.2908 30.1044 -20.4336
head 10.5913 13.6291 -4.41754
rclavicle 5.1684e-014 -4.13472e-014
rhumerus 44.2201 -32.9007 -28.1822
rradius 134.468
rwrist -57.621
rhand -14.208 -15.4729
rfingers 7.12502
rthumb 11.9285 -45.113
lclavicle 5.1684e-014 -4.13472e-014
lhumerus -22.183 -50.1202 66.4068
lradius 86.8473
lwrist 0.00442717
lhand -18.2598 -20.6639
lfingers 7.12502
lthumb 8.01956 9.16391
rfemur -59.6075 -21.3364 -0.392162
rtibia 68.2034
rfoot -17.2846 3.44473
rtoes -19.2672
lfemur -64.7794 19.7476 -21.1404
ltibia 81.3872
lfoot -27.3472 7.06766
ltoes -10.196
541
root -9.14371 13.6071 -0.214366 -327.258 76.1332 16.2681
lowerback 29.2106 1.47906 -8.40886
upperback 8.00318 -0.256423 -5.95768
thorax -6.98339 0.281666 -1.79535
lowerneck -9.03092 22.2507 17.1413
upperneck 10.3482 31.4502 -21.0946
head 10.9744 14.2539 -4.37034
rclavicle -2.70347e-014 2.3059e-014
rhumerus 44.2755 -32.6738 -27.3836
rradius 134.447
rwrist -57.4311
rhand -14.6727 -15.0371
rfingers 7.12502
rthumb 11.4804 -44.7027
lclavicle -2.70347e-014 2.3059e-014
lhumerus -21.4215 -50.7861 66.1223
lradius 86.597
lwrist -0.194185
lhand -18.0494 -20.3594
lfingers 7.12502
lthumb 8.22268 9.46063
rfemur -60.1982 -21.8252 -0.478754
rtibia 68.9568
rfoot -17.5421 3.13658
rtoes -19.2571
lfemur -65.4456 19.2665 -21.2992
ltibia 81.4308
lfoot -26.8779 6.94256
ltoes -10.5503
542
root -9.15094 13.5881 -0.142029 -325.195 76.6226 18.2372
lowerback 29.1684 1.47851 -7.99144
upperback 7.91724 -0.153075 -6.07463
thorax -7.07309 0.331973 -2.20148
lowerneck -8.37277 22.8535 17.4899
upperneck 10.3229 32.5103 -21.7189
head 11.2505 14.7462 -4.3487
rclavicle -2.38542e-014 2.78299e-014
rhumerus 44.5694 -32.5293 -26.8279
rradius 134.36
rwrist -57.513
rhand -15.1103 -14.9576
rfingers 7.12502
rthumb 11.0583 -44.6463
lclavicle -2.38542e-014 2.78299e-014
lhumerus -20.4438 -51.3925 65.6682
lradius 86.2314
lwrist -0.422218
lhand -17.8174 -20.3575
lfingers 7.12502
lthumb 8.44653 9.45357
rfemur -60.3609 -22.0945 -0.603321
rtibia 69.6786
rfoot -18.0727 2.86907
rtoes -18.9778
lfemur -65.6842 18.9481 -21.2947
ltibia 81.4205
lfoot -26.5289 6.73261
ltoes -10.9446
543
root -9.14547 13.5779 -0.0673568 -323.589 76.9858 19.9325
lowerback 29.1897 1.54804 -7.59979
upperback 7.89639 0.0337846 -6.2587
thorax -7.11582 0.423891 -2.69937
lowerneck -7.93667 23.2875 17.6923
upperneck 10.4597 33.2705 -21.9708
head 11.4654 15.0963 -4.25963
rclavicle -1.74931e-014 -3.97569e-015
rhumerus 44.8995 -32.4896 -26.4695
rradius 134.218
rwrist -57.7786
rhand -15.5032 -15.0092
rfingers 7.12502
rthumb 10.6794 -44.7178
lclavicle -1.74931e-014 -3.97569e-015
lhumerus -19.4043 -52.0051 64.9863
lradius 85.9225
lwrist -0.550266
lhand -17.7601 -20.4169
lfingers 7.12502
lthumb 8.50188 9.39197
rfemur -60.2629 -22.1642 -0.754583
rtibia 70.34
rfoot -18.6991 2.53201
rtoes -19.184
lfemur -65.5502 18.7971 -21.1971
ltibia 81.3529
lfoot -26.4187 6.37843
ltoes -10.9034
544
root -9.13891 13.5699 0.0117081 -321.691 77.3263 21.8626
lowerback 29.1366 1.65768 -7.3778
upperback 7.89181 0.238338 -6.40722
thorax -7.09772 0.52423 -3.064
lowerneck -8.26274 23.5633 17.7286
upperneck 11.2735 33.7168 -21.5251
head 11.8121 15.239 -3.95026
rclavicle 5.00937e-014 5.32743e-014
rhumerus 45.2342 -32.3755 -26.1059
rradius 133.896
rwrist -58.036
rhand -15.691 -15.178
rfingers 7.12502
rthumb 10.4982 -44.8958
lclavicle 5.00937e-014 5.32743e-014
lhumerus -18.5385 -52.4019 64.4872
lradius 85.6603
lwrist -0.602738
lhand -18.0202 -20.3444
lfingers 7.12502
lthumb 8.25081 9.47444
rfemur -60.2685 -22.2908 -0.862811
rtibia 70.9586
rfoot -19.0579 2.14568
rtoes -19.343
lfemur -65.4625 18.663 -21.169
ltibia 81.1985
lfoot -26.3269 6.07802
ltoes -10.9529
545
root -9.1361 13.5631 0.0931885 -319.102 77.7251 24.4162
lowerback 29.1147 1.73732 -7.26835
upperback 7.85807 0.36803 -6.53581
thorax -7.12465 0.590667 -3.31869
lowerneck -7.3669 23.7181 18.5699
upperneck 10.8315 34.2979 -23.0729
head 12.1389 15.5161 -4.39524
rclavicle 2.06736e-014 7.15625e-015
rhumerus 45.5924 -32.1665 -25.8131
rradius 133.458
rwrist -58.3062
rhand -16.029 -15.6442
rfingers 7.12502
rthumb 10.1722 -45.3783
lclavicle 2.06736e-014 7.15625e-015
lhumerus -17.8393 -52.5514 64.0838
lradius 85.5596
lwrist -0.505452
lhand -18.2089 -20.1426
lfingers 7.12502
lthumb 8.0687 9.68333
rfemur -60.3065 -22.5764 -0.985237
rtibia 71.5598
rfoot -19.3069 1.80894
rtoes -19.042
lfemur -65.4754 18.4132 -21.2357
ltibia 80.9422
lfoot -26.0104 6.0304
ltoes -11.7271
546
root -9.13581 13.5592 0.177894 -315.93 78.1631 27.6332
lowerback 28.9959 1.76075 -7.19792
upperback 8.00317 0.4616 -6.67637
thorax -6.89924 0.643242 -3.5407
lowerneck -7.83978 23.8589 18.4641
upperneck 11.4825 34.4577 -22.4773
head 12.3336 15.5346 -4.10027
rclavicle -7.95139e-015 -4.6118e-014
rhumerus 45.9354 -32.133 -25.5166
rradius 132.908
rwrist -58.624
rhand -16.7504 -16.122
rfingers 7.12502
rthumb 9.47618 -45.8889
lclavicle -7.95139e-015 -4.6118e-014
lhumerus -16.8677 -52.4983 63.4231
lradius 85.6246
lwrist -0.193308
lhand -18.1423 -20.1359
lfingers 7.12502
lthumb 8.13297 9.68755
rfemur -60.1405 -22.8515 -1.21624
rtibia 72.1396
rfoot -19.7368 1.37829
rtoes -18.9301
lfemur -65.3883 18.0933 -21.3267
ltibia 80.6238
lfoot -25.679 6.00836
ltoes -12.292
547
root -9.13589 13.5603 0.266222 -312.806 78.6821 30.8482
lowerback 29.1214 1.78053 -7.15481
upperback 8.03613 0.501156 -6.73749
thorax -6.91998 0.670493 -3.65386
lowerneck -7.52118 23.9238 18.6522
upperneck 11.2135 34.6394 -22.9367
head 12.3632 15.6351 -4.23074
rclavicle 7.95139e-015 -2.22639e-014
rhumerus 46.129 -31.8627 -25.1035
rradius 132.23
rwrist -58.9632
rhand -17.3473 -16.3408
rfingers 7.12502
rthumb 8.90025 -46.1331
lclavicle 7.95139e-015 -2.22639e-014
lhumerus -16.5656 -52.4109 63.2905
lradius 85.7191
lwrist 0.312992
lhand -18.2852 -20.3798
lfingers 7.12502
lthumb 7.9951 9.44897
rfemur -59.8411 -23.0015 -1.37312
rtibia 72.7107
rfoot -20.3164 0.815642
rtoes -19.1468
lfemur -65.2278 17.7933 -21.2723
ltibia 80.2909
lfoot -25.3898 5.66116
ltoes -12.7039
548
root -9.13093 13.5612 0.352938 -309.929 79.2175 33.8182
lowerback 29.2576 1.80388 -7.01027
upperback 8.04979 0.567265 -6.81009
thorax -6.96771 0.709149 -3.84886
lowerneck -7.22427 23.9546 18.8334
upperneck 10.8363 34.7498 -23.4291
head 12.3492 15.7095 -4.391
rclavicle -1.74931e-014 -3.49861e-014
rhumerus 46.2539 -31.3944 -24.7431
rradius 131.467
rwrist -59.3456
rhand -17.5006 -16.1041
rfingers 7.12502
rthumb 8.75228 -45.9026
lclavicle -1.74931e-014 -3.49861e-014
lhumerus -16.5552 -52.3992 63.2943
lradius 85.8401
lwrist 0.786577
lhand -18.7987 -20.5747
lfingers 7.12502
lthumb 7.49946 9.2724
rfemur -59.5398 -23.131 -1.40962
rtibia 73.294
rfoot -20.8855 0.280128
rtoes -19.3944
lfemur -65.0571 17.5177 -21.0741
ltibia 80.0073
lfoot -25.1246 5.06696
ltoes -12.7775
549
root -9.12089 13.5513 0.438057 -307.087 79.6717 36.6346
lowerback 29.2316 1.85854 -6.9155
upperback 8.02873 0.668167 -6.86728
thorax -6.97644 0.760807 -4.00355
lowerneck -6.98874 23.9449 18.9848
upperneck 10.7287 34.7981 -23.6617
head 12.3653 15.7481 -4.48389
rclavicle -4.45278e-014 7.15625e-015
rhumerus 46.3705 -30.8134 -24.4839
rradius 130.739
rwrist -59.797
rhand -17.4089 -15.8369
rfingers 7.12502
rthumb 8.84075 -45.6317
lclavicle -4.45278e-014 7.15625e-015
lhumerus -16.7792 -52.4262 63.5297
lradius 85.9083
lwrist 0.806493
lhand -19.3965 -20.7871
lfingers 7.12502
lthumb 6.92242 9.07971
rfemur -59.4638 -23.2768 -1.37261
rtibia 73.9363
rfoot -21.4071 -0.230422
rtoes -19.3371
lfemur -65.0817 17.3767 -20.9054
ltibia 79.8369
lfoot -24.9209 4.4667
ltoes -12.4793
550
root -9.11382 13.5363 0.522798 -304.249 80.2091 39.3032
lowerback 29.0835 1.88361 -6.7692
upperback 8.00453 0.758865 -6.84936
thorax -6.93185 0.802993 -4.09174
lowerneck -6.56606 23.9088 19.1172
upperneck 10.2986 34.8261 -24.1791
head 12.2915 15.8016 -4.68981
rclavicle -1.90833e-014 2.06736e-014
rhumerus 46.3887 -30.276 -24.1951
rradius 130.072
rwrist -59.8856
rhand -17.2165 -15.552
rfingers 7.12502
rthumb 9.02644 -45.3389
lclavicle -1.90833e-014 2.06736e-014
lhumerus -16.8538 -52.4148 63.6887
lradius 85.8974
lwrist 0.621788
lhand -16.2154 -19.9267
lfingers 7.12502
lthumb 9.99237 9.81606
rfemur -59.5788 -23.4563 -1.13155
rtibia 74.6002
rfoot -21.8894 -0.735134
rtoes -19.2186
lfemur -65.3514 17.3009 -20.6697
ltibia 79.7288
lfoot -24.6573 3.91322
ltoes -12.7109
551
root -9.10657 13.524 0.604408 -300.836 80.7028 42.546
lowerback 28.9303 1.89046 -6.69327
upperback 8.01345 0.813819 -6.84772
thorax -6.84683 0.830417 -4.144
lowerneck -6.73638 23.9002 19.0378
upperneck 10.0344 34.7773 -24.3586
head 12.2414 15.7742 -4.73319
rclavicle -1.27222e-014 4.13472e-014
rhumerus 46.2576 -29.8886 -23.8975
rradius 129.593
rwrist -59.7402
rhand -17.2299 -15.3191
rfingers 7.12502
rthumb 9.01347 -45.1066
lclavicle -1.27222e-014 4.13472e-014
lhumerus -16.6615 -52.3281 63.6356
lradius 85.8407
lwrist 0.579711
lhand -16.7703 -20.2996
lfingers 7.12502
lthumb 9.45695 9.46823
rfemur -59.6549 -23.7262 -0.934178
rtibia 75.1755
rfoot -22.306 -1.12408
rtoes -19.3142
lfemur -65.5992 17.1339 -20.4714
ltibia 79.5533
lfoot -24.4256 3.37956
ltoes -12.3179
552
root -9.10082 13.5251 0.682205 -296.039 80.9938 47.2071
lowerback 28.8725 1.90244 -6.84142
upperback 7.98663 0.7982 -6.90435
thorax -6.84811 0.82909 -4.11735
lowerneck -6.75307 23.9423 19.1037
upperneck 9.838 34.8562 -24.6229
head 12.2675 15.808 -4.78879
rclavicle -1.27222e-014 4.29375e-014
rhumerus 46.0293 -29.672 -23.6904
rradius 129.415
rwrist -59.7793
rhand -17.4998 -15.5902
rfingers 7.12502
rthumb 8.75301 -45.3887
lclavicle -1.27222e-014 4.29375e-014
lhumerus -16.7571 -52.1757 63.8751
lradius 85.7721
lwrist 0.485306
lhand -20.149 -21.6509
lfingers 7.12502
lthumb 6.19596 8.23847
rfemur -59.6152 -24.1262 -1.00258
rtibia 75.635
rfoot -22.7136 -1.40442
rtoes -19.2521
lfemur -65.7329 16.8256 -20.5321
ltibia 79.2485
lfoot -24.1978 2.89793
ltoes -11.3828
